<mxfile host="app.diagrams.net" agent="Mozilla/5.0 (Windows NT 10.0; Win64; x64) AppleWebKit/537.36 (KHTML, like Gecko) Chrome/134.0.0.0 Safari/537.36" version="26.0.6">
  <diagram name="Page-1" id="A_48imCaFxA3NoTbkuuD">
    <mxGraphModel>
      <root>
        <mxCell id="0" />
        <mxCell id="1" parent="0" />
        <mxCell id="2" value="Start Process" style="whiteSpace=wrap;strokeWidth=2;" vertex="1" parent="1">
          <mxGeometry x="201" y="8" width="152" height="54" as="geometry" />
        </mxCell>
        <mxCell id="3" value="Hit API for Pending Invoice Records" style="whiteSpace=wrap;strokeWidth=2;" vertex="1" parent="1">
          <mxGeometry x="147" y="112" width="260" height="78" as="geometry" />
        </mxCell>
        <mxCell id="4" value="Are there any records?" style="rhombus;strokeWidth=2;whiteSpace=wrap;" vertex="1" parent="1">
          <mxGeometry x="170" y="240" width="216" height="216" as="geometry" />
        </mxCell>
        <mxCell id="5" value="Select 10 Records for Processing" style="whiteSpace=wrap;strokeWidth=2;" vertex="1" parent="1">
          <mxGeometry x="234" y="528" width="260" height="78" as="geometry" />
        </mxCell>
        <mxCell id="6" value="End Process" style="whiteSpace=wrap;strokeWidth=2;" vertex="1" parent="1">
          <mxGeometry x="196" y="2792" width="144" height="54" as="geometry" />
        </mxCell>
        <mxCell id="7" value="Is Account Verified for Records?" style="rhombus;strokeWidth=2;whiteSpace=wrap;" vertex="1" parent="1">
          <mxGeometry x="225" y="656" width="278" height="278" as="geometry" />
        </mxCell>
        <mxCell id="8" value="Bypass Penny Drop API and Send Hardcoded Response" style="whiteSpace=wrap;strokeWidth=2;" vertex="1" parent="1">
          <mxGeometry x="397" y="1197" width="260" height="78" as="geometry" />
        </mxCell>
        <mxCell id="9" value="Hit Penny Drop API" style="whiteSpace=wrap;strokeWidth=2;" vertex="1" parent="1">
          <mxGeometry x="115" y="1007" width="194" height="54" as="geometry" />
        </mxCell>
        <mxCell id="10" value="Was Penny Drop Successful?" style="rhombus;strokeWidth=2;whiteSpace=wrap;" vertex="1" parent="1">
          <mxGeometry x="86" y="1111" width="251" height="251" as="geometry" />
        </mxCell>
        <mxCell id="11" value="Proceed with NEFT API" style="whiteSpace=wrap;strokeWidth=2;" vertex="1" parent="1">
          <mxGeometry x="399" y="1459" width="221" height="54" as="geometry" />
        </mxCell>
        <mxCell id="12" value="Update DB with Status = Success and Proceed to Next Payment" style="whiteSpace=wrap;strokeWidth=2;" vertex="1" parent="1">
          <mxGeometry x="59" y="1435" width="260" height="102" as="geometry" />
        </mxCell>
        <mxCell id="13" value="Is NEFT Successful?" style="rhombus;strokeWidth=2;whiteSpace=wrap;" vertex="1" parent="1">
          <mxGeometry x="415" y="1587" width="190" height="190" as="geometry" />
        </mxCell>
        <mxCell id="14" value="Update DB with Status = 1" style="whiteSpace=wrap;strokeWidth=2;" vertex="1" parent="1">
          <mxGeometry x="208" y="1849" width="247" height="54" as="geometry" />
        </mxCell>
        <mxCell id="15" value="Update DB with Status = 2" style="whiteSpace=wrap;strokeWidth=2;" vertex="1" parent="1">
          <mxGeometry x="535" y="1849" width="247" height="54" as="geometry" />
        </mxCell>
        <mxCell id="16" value="Check for 10 Successful Payments" style="whiteSpace=wrap;strokeWidth=2;" vertex="1" parent="1">
          <mxGeometry x="380" y="1953" width="260" height="78" as="geometry" />
        </mxCell>
        <mxCell id="17" value="Do we have 10 Successful Payments?" style="rhombus;strokeWidth=2;whiteSpace=wrap;" vertex="1" parent="1">
          <mxGeometry x="371" y="2081" width="278" height="278" as="geometry" />
        </mxCell>
        <mxCell id="18" value="Group 10 Records for CBS API" style="whiteSpace=wrap;strokeWidth=2;" vertex="1" parent="1">
          <mxGeometry x="468" y="2432" width="260" height="78" as="geometry" />
        </mxCell>
        <mxCell id="19" value="Hit CBS API with a Batch of 10 Records" style="whiteSpace=wrap;strokeWidth=2;" vertex="1" parent="1">
          <mxGeometry x="468" y="2560" width="260" height="78" as="geometry" />
        </mxCell>
        <mxCell id="20" value="Capture Results in DB" style="whiteSpace=wrap;strokeWidth=2;" vertex="1" parent="1">
          <mxGeometry x="491" y="2688" width="214" height="54" as="geometry" />
        </mxCell>
        <mxCell id="21" value="" style="curved=1;startArrow=none;endArrow=block;exitX=0.5;exitY=1;entryX=0.5;entryY=0;" edge="1" parent="1" source="2" target="3">
          <mxGeometry relative="1" as="geometry">
            <Array as="points" />
          </mxGeometry>
        </mxCell>
        <mxCell id="22" value="" style="curved=1;startArrow=none;endArrow=block;exitX=0.5;exitY=1;entryX=0.5;entryY=0;" edge="1" parent="1" source="3" target="4">
          <mxGeometry relative="1" as="geometry">
            <Array as="points" />
          </mxGeometry>
        </mxCell>
        <mxCell id="23" value="Yes" style="curved=1;startArrow=none;endArrow=block;exitX=0.8;exitY=1;entryX=0.5;entryY=0;" edge="1" parent="1" source="4" target="5">
          <mxGeometry relative="1" as="geometry">
            <Array as="points">
              <mxPoint x="364" y="492" />
            </Array>
          </mxGeometry>
        </mxCell>
        <mxCell id="24" value="No" style="curved=1;startArrow=none;endArrow=block;exitX=0;exitY=0.78;entryX=0;entryY=0.22;" edge="1" parent="1" source="4" target="6">
          <mxGeometry relative="1" as="geometry">
            <Array as="points">
              <mxPoint x="19" y="492" />
              <mxPoint x="19" y="2767" />
            </Array>
          </mxGeometry>
        </mxCell>
        <mxCell id="25" value="" style="curved=1;startArrow=none;endArrow=block;exitX=0.5;exitY=1;entryX=0.5;entryY=0;" edge="1" parent="1" source="5" target="7">
          <mxGeometry relative="1" as="geometry">
            <Array as="points" />
          </mxGeometry>
        </mxCell>
        <mxCell id="26" value="Yes" style="curved=1;startArrow=none;endArrow=block;exitX=0.96;exitY=1;entryX=0.5;entryY=0.01;" edge="1" parent="1" source="7" target="8">
          <mxGeometry relative="1" as="geometry">
            <Array as="points">
              <mxPoint x="527" y="971" />
            </Array>
          </mxGeometry>
        </mxCell>
        <mxCell id="27" value="No" style="curved=1;startArrow=none;endArrow=block;exitX=0.07;exitY=1;entryX=0.5;entryY=0;" edge="1" parent="1" source="7" target="9">
          <mxGeometry relative="1" as="geometry">
            <Array as="points">
              <mxPoint x="212" y="971" />
            </Array>
          </mxGeometry>
        </mxCell>
        <mxCell id="28" value="" style="curved=1;startArrow=none;endArrow=block;exitX=0.5;exitY=1;entryX=0.5;entryY=0;" edge="1" parent="1" source="9" target="10">
          <mxGeometry relative="1" as="geometry">
            <Array as="points" />
          </mxGeometry>
        </mxCell>
        <mxCell id="29" value="Yes" style="curved=1;startArrow=none;endArrow=block;exitX=0.95;exitY=1;entryX=0.29;entryY=-0.01;" edge="1" parent="1" source="10" target="11">
          <mxGeometry relative="1" as="geometry">
            <Array as="points">
              <mxPoint x="357" y="1398" />
            </Array>
          </mxGeometry>
        </mxCell>
        <mxCell id="30" value="No" style="curved=1;startArrow=none;endArrow=block;exitX=0.43;exitY=1;entryX=0.5;entryY=0;" edge="1" parent="1" source="10" target="12">
          <mxGeometry relative="1" as="geometry">
            <Array as="points">
              <mxPoint x="189" y="1398" />
            </Array>
          </mxGeometry>
        </mxCell>
        <mxCell id="31" value="" style="curved=1;startArrow=none;endArrow=block;exitX=0.5;exitY=1.01;entryX=0.52;entryY=-0.01;" edge="1" parent="1" source="8" target="11">
          <mxGeometry relative="1" as="geometry">
            <Array as="points">
              <mxPoint x="527" y="1398" />
            </Array>
          </mxGeometry>
        </mxCell>
        <mxCell id="32" value="" style="curved=1;startArrow=none;endArrow=block;exitX=0.5;exitY=0.99;entryX=0.5;entryY=0;" edge="1" parent="1" source="11" target="13">
          <mxGeometry relative="1" as="geometry">
            <Array as="points" />
          </mxGeometry>
        </mxCell>
        <mxCell id="33" value="Yes" style="curved=1;startArrow=none;endArrow=block;exitX=0;exitY=0.87;entryX=0.5;entryY=0.01;" edge="1" parent="1" source="13" target="14">
          <mxGeometry relative="1" as="geometry">
            <Array as="points">
              <mxPoint x="331" y="1813" />
            </Array>
          </mxGeometry>
        </mxCell>
        <mxCell id="34" value="No" style="curved=1;startArrow=none;endArrow=block;exitX=1;exitY=0.94;entryX=0.5;entryY=0.01;" edge="1" parent="1" source="13" target="15">
          <mxGeometry relative="1" as="geometry">
            <Array as="points">
              <mxPoint x="658" y="1813" />
            </Array>
          </mxGeometry>
        </mxCell>
        <mxCell id="35" value="" style="curved=1;startArrow=none;endArrow=block;exitX=0.5;exitY=1.01;entryX=0.08;entryY=0;" edge="1" parent="1" source="14" target="16">
          <mxGeometry relative="1" as="geometry">
            <Array as="points">
              <mxPoint x="331" y="1928" />
            </Array>
          </mxGeometry>
        </mxCell>
        <mxCell id="36" value="" style="curved=1;startArrow=none;endArrow=block;exitX=0.5;exitY=1.01;entryX=0.85;entryY=0;" edge="1" parent="1" source="15" target="16">
          <mxGeometry relative="1" as="geometry">
            <Array as="points">
              <mxPoint x="658" y="1928" />
            </Array>
          </mxGeometry>
        </mxCell>
        <mxCell id="37" value="" style="curved=1;startArrow=none;endArrow=block;exitX=0.5;exitY=1;entryX=0.5;entryY=0;" edge="1" parent="1" source="16" target="17">
          <mxGeometry relative="1" as="geometry">
            <Array as="points" />
          </mxGeometry>
        </mxCell>
        <mxCell id="38" value="Yes" style="curved=1;startArrow=none;endArrow=block;exitX=0.75;exitY=1;entryX=0.5;entryY=0;" edge="1" parent="1" source="17" target="18">
          <mxGeometry relative="1" as="geometry">
            <Array as="points">
              <mxPoint x="598" y="2396" />
            </Array>
          </mxGeometry>
        </mxCell>
        <mxCell id="39" value="No" style="curved=1;startArrow=none;endArrow=block;exitX=0;exitY=0.86;entryX=0.5;entryY=0;" edge="1" parent="1" source="17" target="6">
          <mxGeometry relative="1" as="geometry">
            <Array as="points">
              <mxPoint x="268" y="2396" />
            </Array>
          </mxGeometry>
        </mxCell>
        <mxCell id="40" value="" style="curved=1;startArrow=none;endArrow=block;exitX=0.5;exitY=1;entryX=0.5;entryY=0;" edge="1" parent="1" source="18" target="19">
          <mxGeometry relative="1" as="geometry">
            <Array as="points" />
          </mxGeometry>
        </mxCell>
        <mxCell id="41" value="" style="curved=1;startArrow=none;endArrow=block;exitX=0.5;exitY=1;entryX=0.5;entryY=0;" edge="1" parent="1" source="19" target="20">
          <mxGeometry relative="1" as="geometry">
            <Array as="points" />
          </mxGeometry>
        </mxCell>
        <mxCell id="42" value="" style="curved=1;startArrow=none;endArrow=block;exitX=0.5;exitY=1;entryX=1;entryY=0.29;" edge="1" parent="1" source="20" target="6">
          <mxGeometry relative="1" as="geometry">
            <Array as="points">
              <mxPoint x="598" y="2767" />
            </Array>
          </mxGeometry>
        </mxCell>
      </root>
    </mxGraphModel>
  </diagram>
</mxfile>
